<svg width="176" height="177" viewBox="0 0 176 177" fill="none" xmlns="http://www.w3.org/2000/svg">
<g clip-path="url(#clip0_2098_29)">
<path d="M27.7411 89.3822C23.0743 87.3454 18.8985 84.3429 15.4922 80.5753C12.086 76.8076 9.52771 72.3614 7.98814 67.5334C6.31311 62.3845 5.9755 56.8983 7.0067 51.585C7.66164 47.6228 9.29185 43.8828 11.7524 40.6976C12.1002 40.2779 12.6593 39.5743 13.4792 38.7349C16.4946 35.8526 20.0889 33.6357 24.0265 32.2296C34.3254 28.6622 45.146 34.0812 61.8429 31.8964C65.0015 31.4905 68.1246 30.8468 71.1851 29.9707C64.5963 36.1459 56.4342 40.4143 47.581 42.3147C34.462 44.2527 31.8035 43.8823 26.1758 48.2768C21.7282 51.7454 17.3677 58.8679 16.8707 68.4839C16.1626 82.0745 27.7411 89.3822 27.7411 89.3822Z" fill="url(#paint0_linear_2098_29)"/>
<path d="M27.1945 89.1975C22.0661 87.5153 17.5162 84.4358 14.0632 80.3098C11.2975 77.0681 9.25271 73.2822 8.06274 69.2003C7.0813 65.781 4.90724 57.5229 9.15599 49.2277C12.3239 43.0558 18.2871 38.4268 24.6353 37.9824C32.6856 37.4393 38.5369 39.6982 49.4073 39.6118C56.4637 39.6118 64.1785 35.4766 64.1785 35.4766C51.9043 44.3025 43.7547 45.253 39.4811 45.5122C35.2075 45.7714 30.7848 46.0306 26.1261 48.9932C24.2566 50.2042 22.613 51.7287 21.2686 53.4987C16.4733 59.572 14.0259 65.2255 13.8147 69.8421C12.9202 83.3711 27.1945 89.1975 27.1945 89.1975Z" fill="#CEC3B6"/>
<path d="M27.207 37.9455C26.3746 37.9455 25.5174 37.9455 24.6353 38.0319C18.5231 38.4516 12.473 42.8461 9.20568 49.2402C4.8327 57.7946 7.31734 66.3489 8.12486 69.1757C9.3139 73.2555 11.3542 77.0408 14.1129 80.2853C17.3635 84.0991 21.5294 87.037 26.2255 88.8273C24.0119 87.7104 21.9566 86.3075 20.1133 84.655C17.9714 82.8379 16.275 80.5592 15.1534 77.9922C14.0318 75.4253 13.5144 72.6379 13.6408 69.8423C13.9141 65.0035 16.5105 59.3376 21.0947 53.4619C22.4398 51.6846 24.088 50.1555 25.9646 48.944C30.673 45.9691 35.0833 45.6975 39.3445 45.4506C42.5124 45.2655 50.836 44.7717 63.458 35.8594C61.3957 36.8469 55.122 39.5626 49.3452 39.649H48.724C44.4956 39.6078 40.2748 39.2862 36.0896 38.6861C33.1478 38.2497 30.1808 38.0023 27.207 37.9455Z" fill="#C9BFB3"/>
<path d="M70.6385 29.7861C70.6385 29.7861 62.4019 59.029 44.0155 65.312C37.7032 67.2506 30.8979 66.8515 24.8589 64.1887C14.1998 59.6585 13.678 55.548 5.11837 52.3139C4.31094 51.9548 3.43398 51.7765 2.54951 51.7914C1.66504 51.8063 0.794687 52.0142 0 52.4003C0 52.4003 2.9443 46.4628 12.5847 45.7716C18.5976 45.3395 21.7282 47.2158 27.9026 48.5243C33.8782 49.7587 39.0835 50.524 43.8168 49.0427C58.9731 44.2039 70.6385 29.7861 70.6385 29.7861Z" fill="#F4EDE4"/>
<path d="M70.6385 29.7861C70.6385 29.7861 62.4019 59.029 44.0155 65.312C37.7032 67.2506 30.8979 66.8515 24.8589 64.1887C14.1998 59.6585 13.678 55.548 5.11837 52.3139C4.31094 51.9548 3.43398 51.7765 2.54951 51.7914C1.66504 51.8063 0.794687 52.0142 0 52.4003C0 52.4003 0.869627 49.1415 10.5846 49.2402C16.6223 49.2402 21.7655 53.5112 27.9771 54.8197C33.0058 56.0384 38.275 55.859 43.208 54.3012C58.3892 49.4624 70.6385 29.7861 70.6385 29.7861Z" fill="url(#paint1_linear_2098_29)"/>
<path d="M47.5686 44.6971C46.2765 39.7987 46.0514 34.6826 46.9084 29.6908C47.7653 24.699 49.6846 19.9464 52.5379 15.7505C55.5502 11.2443 59.6673 7.57399 64.5015 5.08536C68.0292 3.12868 71.9905 2.07256 76.0302 2.01172C76.5768 2.01172 77.4837 2.01172 78.664 2.13516C82.8037 2.69837 86.7781 4.11985 90.3294 6.30742C99.5474 12.1091 101.958 23.8482 114.083 35.5502C116.373 37.7505 118.823 39.7804 121.412 41.6235C112.433 40.3363 103.979 36.6356 96.9634 30.9213C87.2981 21.9102 85.9315 19.6019 78.9745 17.9478C73.471 16.6393 65.1475 17.6639 57.2587 23.2557C46.1772 31.1311 47.5686 44.6971 47.5686 44.6971Z" fill="url(#paint2_linear_2098_29)"/>
<path d="M47.5686 44.6971C45.8483 40.1026 45.2886 35.159 45.9384 30.2995C46.5881 25.4401 48.4276 20.8132 51.2956 16.8244C53.3827 13.9236 58.5507 7.10974 67.7191 5.25815C74.5891 3.87563 81.9188 5.65316 86.2048 10.3315C91.6338 16.2566 93.4973 22.2187 100.318 30.625C104.753 36.0934 112.741 39.5744 112.741 39.5744C98.1312 35.5008 92.3295 29.6992 89.4349 26.5268C86.5403 23.3544 83.6332 20.0956 78.3906 18.2934C76.2759 17.5821 74.0503 17.2518 71.8187 17.3182C64.0542 17.3182 58.0786 18.9476 54.2647 21.6139C43.208 29.4153 47.5686 44.6971 47.5686 44.6971Z" fill="#CEC3B6"/>
<path d="M121.263 41.0679C121.263 41.0679 93.0749 52.8193 76.7508 42.401C71.3032 38.6887 67.3931 33.1416 65.7438 26.7859C62.6877 15.6764 65.632 12.7261 62.8367 4.036C62.6218 3.18604 62.2209 2.39361 61.6626 1.71514C61.1043 1.03666 60.4023 0.488823 59.6067 0.110622C59.6067 0.110622 66.104 -1.28425 72.6511 5.78884C76.7259 10.208 77.1856 13.8124 79.9932 19.3672C82.8009 24.922 85.3973 29.3658 89.4722 32.0815C102.628 40.9444 121.263 41.0679 121.263 41.0679Z" fill="#F4EDE4"/>
<path d="M121.263 41.0683C121.263 41.0683 93.0749 52.8197 76.7508 42.4014C71.3032 38.6891 67.3931 33.142 65.7438 26.7863C62.6877 15.6768 65.632 12.7265 62.8367 4.0364C62.6218 3.18644 62.2209 2.39401 61.6626 1.71554C61.1043 1.03706 60.4023 0.489224 59.6067 0.111023C59.6067 0.111023 62.7125 -1.23447 68.6632 6.3941C72.3902 11.1218 72.2411 17.7505 75.0364 23.3547C77.2108 28.0579 80.6501 32.0732 84.9749 34.958C98.1187 43.7099 121.263 41.0683 121.263 41.0683Z" fill="url(#paint3_linear_2098_29)"/>
<path d="M95.2986 32.4401C98.3456 28.3819 102.229 25.0165 106.689 22.5685C111.15 20.1205 116.084 18.6464 121.164 18.2446C126.591 17.7778 132.048 18.6823 137.028 20.8738C140.764 22.4023 144.063 24.8233 146.631 27.9222C146.967 28.3543 147.538 29.0455 148.184 30.033C150.323 33.6012 151.686 37.5748 152.185 41.6981C153.365 52.4867 145.625 61.6706 143.998 78.3967C143.69 81.5471 143.619 84.7159 143.787 87.8768C139.2 80.1049 136.842 71.2345 136.966 62.2261C138.01 49.0921 138.979 46.5986 135.935 40.1551C133.525 35.0694 127.537 29.243 118.207 26.5767C105.101 22.8859 95.2986 32.4401 95.2986 32.4401Z" fill="url(#paint4_linear_2098_29)"/>
<path d="M112.778 22.4907C114.46 22.4885 116.133 22.7254 117.747 23.1943C122.431 24.5521 127.4 28.3417 132.109 34.1681C133.56 35.8623 134.692 37.8025 135.451 39.8957C137.314 45.1172 136.581 49.4499 135.873 53.6345C135.339 56.7452 133.947 64.9539 139.836 79.1741C139.339 76.9522 138.047 70.2124 139.302 64.6083C140.298 60.3173 141.61 56.1049 143.228 52.0051C144.635 48.4496 145.671 44.76 146.321 40.9943C147.29 34.9951 144.333 28.1442 138.867 23.5399C131.413 17.3679 122.518 17.8617 119.574 18.0098C115.307 18.2442 111.138 19.3671 107.337 21.3057C102.505 24.0183 98.3852 27.8244 95.3111 32.4152C97.1799 30.0675 99.3282 27.9537 101.709 26.1198C104.941 23.8194 108.803 22.5534 112.778 22.4907Z" fill="#CEC3B6"/>
<path d="M144.122 87.3957C144.122 87.3957 117.288 72.8422 115.263 53.5856C114.792 47.0423 116.716 40.5503 120.679 35.3042C127.512 25.9845 131.674 26.4412 136.767 18.8497C137.297 18.1537 137.667 17.3512 137.851 16.4983C138.036 15.6454 138.031 14.7628 137.836 13.9121C137.836 13.9121 142.991 18.1091 141.563 27.5892C140.631 33.5143 138.084 36.1312 135.426 41.7971C132.767 47.463 130.928 52.2401 131.338 57.0913C132.655 72.8545 144.122 87.3957 144.122 87.3957Z" fill="#F4EDE4"/>
<path d="M144.122 87.3957C144.122 87.3957 117.288 72.8422 115.263 53.5856C114.792 47.0423 116.716 40.5503 120.679 35.3042C127.512 25.9845 131.674 26.4412 136.767 18.8497C137.297 18.1537 137.667 17.3512 137.851 16.4983C138.036 15.6454 138.031 14.7628 137.836 13.9121C137.836 13.9121 140.83 15.4921 138.556 24.8735C137.14 30.6999 131.848 34.7487 129.177 40.4146C126.833 45.0297 125.818 50.1987 126.245 55.3508C127.574 71.114 144.122 87.3957 144.122 87.3957Z" fill="url(#paint5_linear_2098_29)"/>
<path d="M134.879 60.9918C139.976 60.8216 145.051 61.7345 149.764 63.6696C154.477 65.6046 158.721 68.5171 162.21 72.2124C165.962 76.1359 168.654 80.9385 170.037 86.1734C171.17 90.0301 171.324 94.1058 170.484 98.036C170.36 98.5668 170.161 99.4308 169.788 100.505C168.323 104.395 166.045 107.933 163.105 110.886C155.365 118.527 143.314 118.292 129.152 127.427C126.477 129.148 123.939 131.071 121.561 133.179C124.816 124.764 130.323 117.392 137.488 111.861C148.47 104.455 151.029 103.677 154.197 97.2953C156.682 92.259 157.539 83.9639 153.8 75.0762C148.507 62.6459 134.879 60.9918 134.879 60.9918Z" fill="url(#paint6_linear_2098_29)"/>
<path d="M134.879 60.9914C139.771 60.3395 144.749 60.8911 149.376 62.5979C154.002 64.3047 158.137 67.1144 161.415 70.7802C163.788 73.4465 169.341 79.9641 169.118 89.2961C168.956 96.2581 165.589 102.961 160.049 106.084C153.029 110.034 146.768 110.515 137.003 115.255C130.655 118.341 125.475 125.316 125.475 125.316C132.705 112.071 139.637 107.726 143.439 105.565C147.24 103.405 151.029 101.381 153.974 96.6902C155.13 94.7868 155.946 92.6985 156.384 90.5182C158.073 82.9884 157.825 76.8411 156.048 72.5577C150.868 60.0903 134.879 60.9914 134.879 60.9914Z" fill="#CEC3B6"/>
<path d="M122.108 133.203C122.108 133.203 116.828 103.281 130.68 89.7155C135.532 85.2625 141.843 82.706 148.445 82.519C160.024 82.0128 162.26 85.5185 171.416 84.7409C172.299 84.7192 173.167 84.5045 173.957 84.1119C174.747 83.7194 175.44 83.1586 175.988 82.4696C175.988 82.4696 175.913 89.0859 167.515 93.8507C162.285 96.8256 158.645 96.48 152.52 97.9489C146.395 99.4178 141.501 100.973 137.935 104.306C126.369 115.181 122.108 133.203 122.108 133.203Z" fill="#F4EDE4"/>
<path d="M122.108 133.203C122.108 133.203 116.828 103.281 130.68 89.7155C135.532 85.2625 141.843 82.706 148.445 82.519C160.024 82.0128 162.26 85.5185 171.416 84.7409C172.299 84.7192 173.167 84.5045 173.957 84.1119C174.747 83.7194 175.44 83.1586 175.988 82.4696C175.988 82.4696 176.609 85.7778 167.813 89.8759C162.347 92.4188 155.874 90.8264 149.75 92.3447C144.656 93.3976 139.956 95.8332 136.171 99.3808C124.605 110.182 122.108 133.203 122.108 133.203Z" fill="url(#paint7_linear_2098_29)"/>
<path d="M136.917 110.021C140.226 113.874 142.67 118.384 144.084 123.251C145.498 128.117 145.85 133.227 145.116 138.24C144.383 143.61 142.288 148.707 139.028 153.053C136.702 156.337 133.595 159 129.984 160.805C129.195 161.191 128.386 161.537 127.562 161.841C123.582 163.104 119.379 163.525 115.226 163.076C104.392 161.841 97.0752 152.3 81.0368 147.029C78.0099 146.033 74.9119 145.266 71.769 144.733C80.4202 142.008 89.6559 141.684 98.479 143.795C111.126 147.72 113.387 149.214 120.356 147.695C125.872 146.461 132.929 141.968 137.575 133.524C144.122 121.637 136.917 110.021 136.917 110.021Z" fill="url(#paint8_linear_2098_29)"/>
<path d="M81.1983 142.745C83.4718 142.745 90.3418 142.98 95.5596 145.436C99.5529 147.355 103.402 149.558 107.076 152.028C110.234 154.224 113.61 156.094 117.151 157.607C122.829 159.866 130.208 158.533 135.948 154.188C143.625 148.374 145.153 139.598 145.65 136.709C146.365 132.526 146.188 128.241 145.128 124.131C143.545 118.852 140.732 114.018 136.917 110.021C138.787 112.353 140.372 114.897 141.637 117.601C142.766 120.163 143.294 122.948 143.18 125.743C143.066 128.538 142.313 131.271 140.979 133.734C138.619 137.968 133.798 141.931 127.04 145.214C125.054 146.24 122.9 146.909 120.679 147.189C115.126 147.831 111.051 146.152 107.088 144.535C104.156 143.338 96.454 140.19 81.1983 142.745Z" fill="#CEC3B6"/>
<path d="M72.1666 145.152C72.1666 145.152 92.3916 122.39 111.71 124.686C118.239 125.672 124.188 128.974 128.456 133.981C136.072 142.622 134.668 146.597 141.041 153.213C141.609 153.885 142.318 154.424 143.119 154.793C143.92 155.162 144.792 155.352 145.675 155.349C145.675 155.349 140.42 159.41 131.438 155.867C125.835 153.657 123.835 150.608 118.853 146.769C113.871 142.931 109.61 140.104 104.753 139.363C88.9876 137.215 72.1666 145.152 72.1666 145.152Z" fill="#F4EDE4"/>
<path d="M72.1666 145.152C72.1666 145.152 92.3916 122.39 111.71 124.686C118.239 125.672 124.188 128.974 128.456 133.981C136.072 142.622 134.668 146.597 141.041 153.213C141.609 153.885 142.318 154.424 143.119 154.793C143.92 155.162 144.792 155.352 145.675 155.349C145.675 155.349 143.464 157.891 134.755 153.608C129.351 150.954 126.568 144.967 121.586 141.091C117.581 137.792 112.735 135.656 107.585 134.919C91.8201 132.734 72.1666 145.152 72.1666 145.152Z" fill="url(#paint9_linear_2098_29)"/>
<path d="M100.019 141.919C99.0577 146.894 97.0387 151.608 94.0973 155.746C91.1559 159.885 87.3597 163.351 82.9623 165.916C78.2777 168.679 72.9656 170.221 67.5202 170.396C63.4895 170.641 59.4604 169.891 55.7927 168.212C54.9961 167.843 54.2205 167.431 53.4696 166.977C49.9817 164.692 47.0183 161.701 44.7733 158.201C38.9841 149.017 41.9284 137.389 36.077 121.638C34.9774 118.662 33.6526 115.774 32.114 112.997C39.6551 118.012 45.6701 124.984 49.5065 133.155C54.3143 145.425 54.4758 148.091 60.0911 152.572C64.489 156.115 72.4398 158.744 81.9809 157.102C95.3856 154.806 100.019 141.919 100.019 141.919Z" fill="url(#paint10_linear_2098_29)"/>
<path d="M100.02 141.919C99.5703 146.802 97.9233 151.501 95.2225 155.605C92.5217 159.709 88.8497 163.092 84.5277 165.459C81.3847 167.175 73.7568 171.1 64.6506 168.829C57.8675 167.138 52.0286 162.373 50.2023 156.324C47.904 148.634 48.8109 142.462 46.3263 131.957C44.6989 125.131 38.9966 118.552 38.9966 118.552C50.3887 128.501 53.1466 136.179 54.389 140.326C55.6313 144.474 56.8736 148.609 60.7745 152.498C62.3763 154.037 64.2341 155.29 66.2656 156.201C73.2847 159.497 79.3721 160.62 83.9687 159.904C97.3609 157.608 100.02 141.919 100.02 141.919Z" fill="#CEC3B6"/>
<path d="M32.0271 113.552C32.0271 113.552 62.551 115.058 72.8002 131.488C76.0948 137.173 77.2069 143.851 75.9308 150.287C73.8561 161.631 69.918 163.014 68.6632 172.062C68.4899 172.925 68.5114 173.816 68.7262 174.67C68.9411 175.523 69.3438 176.319 69.9055 177C69.9055 177 63.433 175.457 60.613 166.273C58.8613 160.545 60.0042 157.089 59.9173 150.831C59.8303 144.572 59.3582 139.474 56.8736 135.289C48.7239 121.662 32.0271 113.552 32.0271 113.552Z" fill="#F4EDE4"/>
<path d="M32.0271 113.552C32.0271 113.552 62.551 115.058 72.8002 131.488C76.0948 137.173 77.2069 143.851 75.9308 150.287C73.8561 161.631 69.918 163.014 68.6632 172.062C68.4899 172.925 68.5114 173.816 68.7262 174.67C68.9411 175.523 69.3438 176.319 69.9055 177C69.9055 177 66.5264 176.876 64.4642 167.445C63.2218 161.594 66.1786 155.669 66.0916 149.411C66.18 144.245 64.8347 139.154 62.2031 134.697C54.0162 121.057 32.0271 113.552 32.0271 113.552Z" fill="url(#paint11_linear_2098_29)"/>
<path d="M51.9042 133.006C51.9042 133.006 37.692 141.227 21.84 134.932C16.7476 133.018 12.2229 129.859 8.68378 125.748C5.98507 122.774 4.06128 119.189 3.0809 115.305C2.96909 114.774 2.7579 113.898 2.60882 112.737C2.22763 108.599 2.7271 104.427 4.07476 100.492C7.70235 90.2714 18.6721 85.2968 27.4056 70.8667C29.0574 68.1615 30.4986 65.3348 31.7165 62.4111C32.4851 71.389 30.7666 80.4047 26.7472 88.4816C20.0883 99.875 18.1254 101.714 18.0509 108.824C18.0509 114.441 20.8834 122.267 28.1386 128.649C38.3505 137.635 51.9042 133.006 51.9042 133.006Z" fill="url(#paint12_linear_2098_29)"/>
<path d="M51.9043 133.007C47.0759 136.117 41.5024 137.898 35.7541 138.166C31.4767 138.29 27.2214 137.512 23.2687 135.883C19.9642 134.513 12.0878 131.044 8.23662 122.576C5.32959 116.243 5.42897 108.751 9.05656 103.554C13.6407 96.9622 19.0697 93.8145 25.7782 85.3218C30.1388 79.8041 31.7538 71.2744 31.7538 71.2744C31.0457 86.3217 26.71 93.2343 24.2005 96.7647C21.691 100.295 19.2312 103.825 18.61 109.318C18.3976 111.525 18.5741 113.752 19.1318 115.898C20.9083 123.403 23.8278 128.834 27.2939 131.945C37.3567 140.956 51.9043 133.007 51.9043 133.007Z" fill="#C9BFB3"/>
<path d="M31.2196 62.707C31.2196 62.707 49.0842 87.395 42.5496 105.553C40.1358 111.662 35.577 116.696 29.7164 119.724C19.5045 125.18 15.9514 122.995 8.05024 127.649C7.26591 128.052 6.58018 128.621 6.04141 129.317C5.50264 130.012 5.12393 130.816 4.932 131.673C4.932 131.673 2.09951 125.686 7.56573 117.761C10.9821 112.824 14.4109 111.589 19.2808 107.59C24.1508 103.59 27.8777 100.109 29.617 95.5543C35.282 80.7416 31.2196 62.707 31.2196 62.707Z" fill="#F4EDE4"/>
<path d="M31.2196 62.707C31.2196 62.707 49.0842 87.395 42.5496 105.553C40.1358 111.662 35.5769 116.696 29.7164 119.724C19.5044 125.18 15.9514 122.995 8.05023 127.649C7.2659 128.052 6.58017 128.621 6.0414 129.317C5.50263 130.012 5.12392 130.816 4.93199 131.673C4.93199 131.673 2.91943 128.969 9.04409 121.477C12.858 116.835 19.3802 115.465 24.2501 111.503C28.3798 108.338 31.5485 104.1 33.4061 99.2575C39.0586 84.5065 31.2196 62.707 31.2196 62.707Z" fill="url(#paint13_linear_2098_29)"/>
<path d="M104.84 88.5558C103.345 87.634 101.732 86.9158 100.044 86.4203C95.9953 85.3628 91.7282 85.4612 87.7329 86.7042C87.2235 86.8523 86.739 86.9511 86.3042 87.0375C86.2878 86.7638 86.1977 86.4995 86.0433 86.2722C86.6194 85.8208 87.2253 85.4084 87.8571 85.0378C89.3963 84.1353 91.0755 83.4929 92.8264 83.1368C95.9366 82.3991 99.1643 82.29 102.318 82.8159C104.056 83.0611 105.752 83.5386 107.362 84.2354C109.56 85.2449 111.642 86.4865 113.573 87.9386C113.312 86.4783 112.758 85.0848 111.946 83.8404C110.576 81.7162 108.549 80.0916 106.169 79.2114C109.683 79.0315 113.197 79.552 116.505 80.7421C125.102 83.9145 128.518 86.6672 128.518 86.6672C127.932 83.9231 126.649 81.3736 124.791 79.2608C121.102 74.9694 115.966 72.1608 110.343 71.3607C106.261 70.8101 102.107 71.2073 98.2057 72.521C96.5501 73.1133 94.9797 73.9184 93.5345 74.9157C90.1772 77.4008 87.5936 80.7765 86.0806 84.6551C85.9067 85.0625 85.7327 85.4204 85.5588 85.7537C85.3297 85.616 85.0687 85.5394 84.801 85.5315C84.7556 85.526 84.7097 85.526 84.6643 85.5315C84.6537 84.8094 84.6953 84.0875 84.7886 83.3713C85.042 81.6263 85.5791 79.9337 86.3787 78.3597C87.7358 75.4846 89.6626 72.911 92.0437 70.7929C93.3188 69.5965 94.7525 68.579 96.3049 67.7686C98.4843 66.6986 100.776 65.8707 103.138 65.2998C101.823 64.6108 100.382 64.191 98.9014 64.0654C96.3842 63.7877 93.8441 64.3245 91.6586 65.596C93.6769 62.7662 96.24 60.3621 99.1995 58.523C107.076 53.8199 111.374 52.8941 111.374 52.8941C108.852 51.6632 106.056 51.0897 103.25 51.2277C97.5699 51.411 92.1534 53.6498 88.0186 57.5231C85.0384 60.3403 82.7624 63.8108 81.3722 67.6575C80.7955 69.3153 80.4446 71.0423 80.3286 72.7926C80.189 76.9505 81.2355 81.0629 83.3475 84.6551C83.5711 85.0748 83.7574 85.4575 83.9314 85.8895C83.6787 86.0432 83.4759 86.2661 83.3475 86.5314C82.7342 86.0647 82.157 85.5531 81.6206 85.0007C80.3975 83.7242 79.3943 82.2562 78.6515 80.6557C77.2166 77.8154 76.3717 74.7173 76.1668 71.5458C76.0154 69.8098 76.1032 68.0614 76.4277 66.349C76.9281 63.9769 77.6905 61.6669 78.7012 59.4611C77.3277 60.0291 76.0849 60.8691 75.0487 61.9299C73.2809 63.7203 72.136 66.0258 71.7814 68.5092C70.8114 65.1596 70.5159 61.6529 70.9118 58.1897C72.1541 49.1539 74.03 45.2285 74.03 45.2285C71.4924 46.4239 69.3033 48.2422 67.6694 50.5117C64.3078 55.0595 62.7229 60.6655 63.2094 66.2873C63.5885 70.3607 64.9155 74.2908 67.0855 77.7672C68.0485 79.2464 69.2104 80.5878 70.5391 81.7543C73.7177 84.4383 77.5924 86.1794 81.72 86.7783C82.2667 86.877 82.7636 86.9881 83.2108 87.0992C83.2179 87.3542 83.286 87.6039 83.4096 87.8275C82.5681 88.0595 81.7075 88.2165 80.838 88.2966C79.0716 88.4531 77.2913 88.3155 75.5705 87.8892C72.4443 87.2282 69.4857 85.9431 66.8743 84.112C65.4118 83.145 64.0872 81.9866 62.9361 80.668C61.3864 78.8015 60.0452 76.7735 58.9358 74.6195C58.5344 76.0442 58.4287 77.5351 58.6252 79.0016C58.943 81.5147 60.0719 83.8578 61.8428 85.6797C58.5882 84.3498 55.6322 82.3903 53.1466 79.915C46.761 73.3604 44.8851 69.398 44.8851 69.398C44.2485 72.119 44.3169 74.9561 45.0839 77.6437C46.5418 83.099 49.9517 87.8389 54.6746 90.9752C58.1165 93.2164 62.0316 94.6398 66.1164 95.1351C67.8715 95.3176 69.6434 95.2636 71.3839 94.9747C75.4883 94.1763 79.2822 92.2423 82.3288 89.3952C82.8381 88.9508 83.3226 88.5928 83.745 88.2595C83.9016 88.3954 84.0829 88.5001 84.2792 88.5681C83.9433 89.4277 83.5274 90.2542 83.0369 91.0369C82.0574 92.5054 80.8401 93.8026 79.4342 94.8759C76.9399 96.8878 74.0622 98.3783 70.9739 99.258C69.3045 99.7894 67.57 100.093 65.8183 100.159C63.3777 100.206 60.9397 99.978 58.5507 99.4802C59.4389 100.672 60.5583 101.675 61.8428 102.43C64.0067 103.752 66.5437 104.342 69.0732 104.109C66.0037 105.802 62.6246 106.868 59.1346 107.245C49.9911 108.109 45.7051 107.096 45.7051 107.096C47.4498 109.274 49.7245 110.973 52.3142 112.034C57.5162 114.306 63.3737 114.613 68.7874 112.898C72.7066 111.647 76.2822 109.514 79.2354 106.664C80.4672 105.413 81.5282 104.006 82.3909 102.48C84.3383 98.7966 85.1995 94.6419 84.8755 90.4938C84.8755 89.8025 84.8755 89.1853 84.8755 88.6422C85.0757 88.6448 85.2744 88.607 85.4594 88.5311C85.8931 89.3187 86.2509 90.1453 86.5278 90.9999C87.0688 92.6744 87.329 94.426 87.2981 96.1844C87.3046 99.3578 86.6754 102.501 85.447 105.43C84.8319 107.058 83.996 108.594 82.9624 109.997C81.476 111.918 79.7803 113.669 77.9061 115.219C79.3944 115.299 80.8833 115.072 82.2791 114.552C84.6707 113.702 86.7169 112.098 88.1056 109.985C87.5213 113.421 86.2544 116.706 84.3786 119.65C79.4093 127.291 75.8811 129.982 75.8811 129.982C78.6935 130.006 81.4652 129.314 83.9314 127.97C88.9622 125.35 92.8582 120.996 94.8887 115.725C96.3351 111.895 96.8626 107.782 96.4291 103.714C96.2228 101.976 95.7798 100.273 95.1123 98.6532C93.4219 94.8481 90.6827 91.5957 87.2111 89.2718C86.6893 88.8891 86.2545 88.5435 85.857 88.2102C86.0381 88.052 86.1787 87.8531 86.2669 87.63C87.0865 87.7952 87.8922 88.0222 88.677 88.3089C90.3367 88.9339 91.8813 89.8264 93.2488 90.9505C95.7811 92.9044 97.8933 95.3431 99.4604 98.1224C100.354 99.623 101.036 101.239 101.485 102.924C102.07 105.272 102.387 107.678 102.43 110.096C103.426 108.991 104.179 107.692 104.641 106.282C105.453 103.879 105.453 101.278 104.641 98.8754C106.977 101.472 108.768 104.506 109.908 107.8C112.778 116.441 112.741 120.835 112.741 120.835C114.511 118.664 115.695 116.082 116.182 113.33C117.249 107.788 116.251 102.05 113.374 97.1842C111.244 93.6874 108.322 90.7329 104.84 88.5558Z" fill="url(#paint14_radial_2098_29)"/>
<path d="M128.928 88.2718C128.668 87.215 128.327 86.1793 127.91 85.1734C126.872 82.7681 125.389 80.5781 123.537 78.7175C119.482 74.4975 114.11 71.7653 108.293 70.9655C103.579 70.1595 98.7298 70.9968 94.5657 73.3356C93.5428 73.909 92.5777 74.5787 91.6835 75.3353C89.5849 77.2188 87.865 79.4807 86.6148 82.001C85.932 83.1561 85.4215 84.4035 85.0992 85.7042C84.9752 85.6607 84.8454 85.6358 84.7141 85.6302C84.4567 79.6802 86.3124 73.8297 89.9567 69.1016C91.8358 66.598 94.2146 64.5066 96.9443 62.9582C99.6741 61.4098 102.696 60.4377 105.821 60.1029C107.776 59.8555 109.755 59.8555 111.71 60.1029C115.76 60.6707 120.344 63.1271 122.555 64.2257C123.164 64.567 123.753 64.942 124.319 65.349C124.17 64.7104 123.923 64.0984 123.586 63.5345C118.468 55.2393 113.051 53.6593 113.051 53.6593C112.063 53.195 111.036 52.8151 109.983 52.5237C107.445 51.8285 104.799 51.6108 102.181 51.8818C96.3298 52.4051 90.8275 54.8756 86.5651 58.8932C82.976 62.051 80.6006 66.3482 79.8442 71.0519C79.6595 72.2027 79.5847 73.3682 79.6205 74.5329C79.805 77.3269 80.5173 80.0614 81.7201 82.5935C82.191 83.8318 82.8396 84.9959 83.6457 86.0499C83.5489 86.159 83.4655 86.2792 83.3972 86.4078C78.5096 82.8908 75.0293 77.7714 73.5704 71.953C72.5622 67.9668 72.6357 63.7861 73.7837 59.8373C74.9316 55.8885 77.1129 52.3128 80.105 49.4747C83.0742 46.685 87.8696 44.6606 90.0436 43.6237C90.6942 43.3677 91.3577 43.1452 92.0314 42.9571C91.4418 42.6665 90.8079 42.4746 90.1554 42.3893C80.428 41.1549 75.7818 44.389 75.7818 44.389C74.819 44.8702 73.8967 45.4275 73.0238 46.0554C70.8923 47.5959 69.0681 49.5173 67.6445 51.7213C64.4153 56.5923 62.9276 62.4006 63.4206 68.2128C63.6644 72.972 65.561 77.5001 68.7875 81.0259C69.5867 81.8816 70.4597 82.6664 71.3964 83.3712C73.7101 84.9863 76.3111 86.1508 79.0615 86.8028C80.3581 87.2227 81.7106 87.4474 83.0742 87.4694H83.2605C83.2787 87.5844 83.3122 87.6964 83.3599 87.8027C77.462 89.4924 71.1496 89.0237 65.5699 86.4819C61.7941 84.7866 58.5392 82.1252 56.1382 78.77C53.7371 75.4148 52.276 71.4861 51.9043 67.3858C51.5689 63.337 52.9603 58.35 53.5442 55.9676C53.7057 55.3381 54.2523 54.0049 54.2523 54.0049C53.6625 54.2954 53.1185 54.6697 52.6373 55.1159C45.643 61.9174 45.1833 67.5216 45.1833 67.5216C44.9508 68.582 44.8054 69.6595 44.7485 70.7433C44.629 73.361 45.0041 75.9778 45.8542 78.4583C47.6628 84.0116 51.3047 88.7959 56.1903 92.0367C60.0845 94.8119 64.8247 96.1638 69.6074 95.8633C70.7816 95.7775 71.9458 95.5874 73.0859 95.2955C75.787 94.5001 78.315 93.2107 80.5399 91.4935C81.6776 90.7393 82.6987 89.8245 83.5711 88.7779L83.8196 88.4693C83.8974 88.5164 83.9809 88.5538 84.0681 88.5804C81.7843 94.243 77.5361 98.9064 72.0921 101.727C68.4139 103.603 64.3009 104.478 60.172 104.261C56.0431 104.044 52.0458 102.744 48.5873 100.492C45.1709 98.2333 42.1148 94.0611 40.5867 92.1107C40.1904 91.5425 39.8254 90.9532 39.4935 90.3455C39.3409 90.9839 39.2947 91.6427 39.3568 92.2959C40.3755 101.974 44.5497 105.763 44.5497 105.763C46.9305 108.63 50.0531 110.798 53.5814 112.034C59.0871 114.07 65.1235 114.201 70.7131 112.404C75.3217 111.095 79.3331 108.243 82.0679 104.331C82.728 103.369 83.2977 102.348 83.7699 101.282C84.8417 98.6799 85.4025 95.8977 85.4222 93.0859C85.5356 91.7355 85.4519 90.376 85.1737 89.0494C85.1737 88.9137 85.1737 88.7902 85.0743 88.6791L85.3849 88.5927C88.3905 93.9359 89.3606 100.175 88.118 106.171C87.2941 110.198 85.4102 113.937 82.6582 117.005C79.9062 120.073 76.3846 122.362 72.4523 123.637C68.5639 124.872 63.3585 124.649 60.8863 124.612C60.1909 124.572 59.4983 124.494 58.8116 124.378C58.8116 124.526 60.0539 125.538 60.2527 125.686C68.5017 130.932 74.0798 130.056 74.0798 130.056C75.1755 130.042 76.2683 129.939 77.3471 129.747C79.9386 129.281 82.4174 128.33 84.6519 126.945C89.6899 123.953 93.5605 119.354 95.6341 113.898C97.4799 109.499 97.7388 104.602 96.3671 100.036C96.0287 98.9179 95.5836 97.8349 95.0378 96.8014C93.6543 94.3532 91.8163 92.1877 89.6212 90.4196C88.6289 89.4828 87.5028 88.6967 86.2794 88.0866L86.0434 87.9755C86.0963 87.8888 86.142 87.798 86.18 87.7039C92.2039 88.6879 97.6736 91.7841 101.597 96.4311C103.641 98.8052 105.168 101.574 106.084 104.563C106.999 107.552 107.281 110.696 106.914 113.799C106.716 115.747 106.261 117.66 105.56 119.49C104.107 123.292 100.69 127.192 99.125 129.093C98.6532 129.603 98.1556 130.09 97.6342 130.55C98.2914 130.547 98.9445 130.447 99.5723 130.254C108.84 127.118 111.635 122.23 111.635 122.23C112.306 121.375 112.904 120.467 113.424 119.514C114.672 117.215 115.473 114.702 115.785 112.108C116.56 106.326 115.357 100.452 112.368 95.4313C110.058 91.2568 106.367 88.0038 101.92 86.2227C100.827 85.7924 99.6959 85.4659 98.5411 85.2475C95.7529 84.7913 92.9028 84.8667 90.143 85.4697C88.7885 85.6502 87.4691 86.0331 86.2297 86.6053C86.1901 86.5058 86.1402 86.4106 86.0806 86.3214C90.6146 82.3442 96.4202 80.0919 102.467 79.9643C105.61 79.8626 108.741 80.4064 111.663 81.5619C114.585 82.7173 117.236 84.4595 119.449 86.6794C120.857 88.0487 122.077 89.5968 123.077 91.2837C125.164 94.777 126.096 99.9245 126.618 102.27C126.726 102.957 126.796 103.649 126.829 104.344C127.003 104.344 127.711 102.912 127.81 102.64C131.065 93.4809 128.928 88.2718 128.928 88.2718Z" fill="url(#paint15_radial_2098_29)"/>
<path d="M87.9317 84.9141C91.9685 82.1631 96.5596 80.3182 101.386 79.5074C102.966 79.2312 104.565 79.0703 106.169 79.026C109.666 78.8758 113.161 79.3653 116.48 80.4702C121.639 82.3539 126.134 85.6913 129.413 90.0738C129.196 86.4639 128.059 82.968 126.108 79.9148C121.574 72.8787 114.095 71.1752 112.058 70.7062C106.106 69.3736 99.8673 70.2981 94.5657 73.2984C91.3376 75.1246 88.6772 77.7979 86.8757 81.0257C86.1525 82.3673 85.5897 83.7882 85.1986 85.2597C85.046 85.2408 84.8916 85.2408 84.7389 85.2597C84.7389 84.7042 84.7389 84.1117 84.7389 83.4575C85.2703 76.9892 87.6303 70.8017 91.5469 65.6081C94.16 61.9668 97.6556 59.0397 101.71 57.0977C105.764 55.1557 110.246 54.2617 114.741 54.4985C111.761 52.4161 108.299 51.1167 104.678 50.7213C96.3174 49.8572 90.317 54.5973 88.6771 55.8934C83.9098 59.6782 80.741 65.099 79.7945 71.0888C79.2031 74.7301 79.6329 78.463 81.0368 81.8774C81.6373 83.289 82.4136 84.6202 83.3475 85.8398C83.2225 85.9657 83.114 86.1067 83.0245 86.2595C82.5649 85.8892 82.0679 85.4819 81.5462 85.0252C77.9506 81.7081 75.1269 77.6513 73.2723 73.1379C72.6723 71.6296 72.1743 70.0831 71.7815 68.5089C70.8662 65.1496 70.5715 61.6532 70.9119 58.1894C71.6228 52.7745 73.9065 47.6828 77.4838 43.5371C73.9887 44.5514 70.8089 46.4284 68.2409 48.9931C62.3398 54.9553 62.3274 62.5715 62.315 64.6453C62.3254 70.7079 64.6112 76.5487 68.7254 81.0257C71.2377 83.7431 74.4517 85.7241 78.018 86.7533C79.5918 87.1927 81.216 87.4292 82.8506 87.4569C82.8712 87.5981 82.9131 87.7354 82.9748 87.8643C82.3412 88.0247 81.6083 88.1729 80.7883 88.2963C75.9369 89.0216 70.9846 88.6845 66.278 87.3088C64.7647 86.8645 63.283 86.3202 61.8429 85.6794C58.6135 84.3028 55.6659 82.3489 53.1466 79.9148C49.3156 75.9914 46.7244 71.0394 45.6927 65.6698C44.3066 69.0192 43.798 72.6632 44.2143 76.2609C45.2206 84.5437 51.1962 89.3208 52.8361 90.617C57.6048 94.3942 63.6217 96.2652 69.7068 95.8631C73.4142 95.6082 76.9804 94.3488 80.0181 92.2217C81.4153 91.2272 82.6692 90.0477 83.7451 88.716C83.8461 88.7817 83.9545 88.8355 84.0681 88.8765C83.7823 89.4937 83.4221 90.1849 82.9997 90.9502C80.5508 95.174 77.2061 98.8175 73.1977 101.628C71.8933 102.542 70.5278 103.367 69.1105 104.097C66.02 105.745 62.6514 106.816 59.1719 107.257C53.7045 107.793 48.1986 106.729 43.3323 104.195C45.1138 107.36 47.6796 110.02 50.7862 111.923C57.9544 116.292 65.4332 114.589 67.4706 114.132C73.4109 112.761 78.624 109.241 82.0928 104.257C84.1937 101.215 85.4141 97.6583 85.621 93.9745C85.6919 92.2877 85.5416 90.5988 85.1737 88.9505C85.3014 88.9206 85.4262 88.8793 85.5464 88.8271C85.8446 89.4196 86.1676 90.0615 86.503 90.9256C88.294 95.462 89.0739 100.33 88.7889 105.195C88.6973 106.787 88.4981 108.37 88.1926 109.935C87.5566 113.361 86.2934 116.641 84.4656 119.613C81.473 124.194 77.1981 127.807 72.1666 130.007C75.7596 130.597 79.4448 130.27 82.8754 129.056C90.789 126.217 94.0564 119.354 95.0254 117.477C97.6583 112.01 98.1369 105.762 96.3671 99.9613C95.2864 96.4296 93.2493 93.2611 90.4785 90.8021C89.2339 89.7178 87.8514 88.8006 86.3664 88.0741C86.4276 87.9582 86.4816 87.8387 86.5279 87.7161C87.149 87.8519 87.8447 88.0247 88.6026 88.2469C93.287 89.6842 97.6019 92.1142 101.249 95.3694C102.45 96.4303 103.575 97.5728 104.616 98.7887C106.912 101.414 108.705 104.435 109.908 107.701C111.65 112.886 111.827 118.464 110.418 123.748C113.131 121.33 115.175 118.262 116.356 114.836C119.052 106.923 115.735 100.023 114.828 98.1838C112.164 92.7302 107.548 88.4606 101.883 86.2102C98.4293 84.8452 94.6639 84.4523 91.0002 85.0745C89.4494 85.3489 87.9388 85.8133 86.503 86.457C86.4561 86.3266 86.3935 86.2023 86.3167 86.0867C86.7888 85.6794 87.2981 85.3214 87.9317 84.9141Z" fill="url(#paint16_radial_2098_29)"/>
<path d="M36.3504 62.0034C33.0459 61.2751 29.7537 60.4233 26.4118 59.7197C26.0019 59.7197 24.6229 59.4111 24.1881 59.4111C23.4675 59.4111 22.66 59.4111 21.9022 59.4111L20.5605 60.5468L20.163 60.9294C19.9393 61.238 19.666 60.9294 19.4548 61.2257C21.1408 62.377 22.9438 63.3493 24.8341 64.1265C29.0865 65.9271 33.723 66.6482 38.3257 66.225C37.3656 64.9776 36.6914 63.5368 36.3504 62.0034Z" fill="#E2DACD"/>
<path d="M35.7541 66.4841C31.9865 66.4398 28.2625 65.6772 24.7844 64.2375C23.218 63.6172 21.7194 62.8396 20.312 61.9168C20.0139 61.7317 19.7157 61.5342 19.3927 61.349C19.4345 61.2839 19.494 61.2319 19.5644 61.1991C19.6348 61.1663 19.7131 61.1541 19.7902 61.1639C19.8484 61.1734 19.9081 61.167 19.9629 61.1452C20.0176 61.1234 20.0653 61.0872 20.1008 61.0404L20.5108 60.6578L20.9953 60.2381L21.8401 59.5098C22.2128 59.5098 22.6227 59.5098 23.0079 59.5098C23.393 59.5098 23.7657 59.5098 24.126 59.5098C24.7889 59.5641 25.4483 59.6548 26.1012 59.7813H26.3621C28.2256 60.1763 30.0891 60.6207 31.9153 61.0157L36.2759 62.0403C36.6087 63.59 37.288 65.0454 38.2636 66.2989L38.3257 66.3853H38.363C37.4957 66.464 36.6249 66.497 35.7541 66.4841ZM19.6039 61.275L20.4735 61.8057C21.8717 62.7294 23.3621 63.507 24.921 64.1264C29.1224 65.8922 33.6929 66.6167 38.2387 66.2372C37.2863 65.0067 36.6202 63.5818 36.2883 62.065L32.0271 61.0528C30.2133 60.6207 28.3002 60.1763 26.4739 59.8184H26.2255C25.6664 59.732 24.6229 59.5591 24.2626 59.5591C23.9023 59.5591 23.5421 59.5591 23.1445 59.5591H22.0016L21.1692 60.2627L20.6847 60.6824L20.2251 60.991C20.1802 61.0517 20.1193 61.0987 20.0491 61.1271C19.9789 61.1554 19.9022 61.1639 19.8275 61.1515C19.7837 61.1559 19.7413 61.1691 19.7029 61.1903C19.6644 61.2115 19.6307 61.2403 19.6039 61.275Z" fill="#E2DACD"/>
<path d="M16.8335 68.916C16.4732 68.916 16.1129 68.916 15.7402 68.916C13.0024 68.9058 10.305 68.259 7.86389 67.0273C7.86389 67.1878 7.93843 67.3483 7.98813 67.5088C12.9574 83.7411 28.2753 89.6415 28.2753 89.6415C28.2753 89.6415 16.3862 82.2104 16.8335 68.916Z" fill="url(#paint17_linear_2098_29)"/>
<path d="M13.7028 69.8424C13.7223 69.5115 13.7596 69.1819 13.8146 68.8549C11.5933 68.5947 9.44031 67.9249 7.46631 66.8799C7.6775 67.781 7.8887 68.571 8.06262 69.1882C9.2526 73.2701 11.2974 77.0561 14.063 80.2978C17.8887 84.6255 22.8015 87.867 28.3001 89.6915C28.3001 89.6915 12.9201 83.3714 13.7028 69.8424Z" fill="#C9BFB3"/>
</g>
<defs>
<linearGradient id="paint0_linear_2098_29" x1="10.179" y1="77.0693" x2="55.0818" y2="20.0521" gradientUnits="userSpaceOnUse">
<stop offset="0.16" stop-color="#B1A89D"/>
<stop offset="0.94" stop-color="#7D746C"/>
</linearGradient>
<linearGradient id="paint1_linear_2098_29" x1="68.4992" y1="45.0944" x2="8.32206" y2="58.7638" gradientUnits="userSpaceOnUse">
<stop stop-color="#B1A89D"/>
<stop offset="0.54" stop-color="#E2DACD"/>
</linearGradient>
<linearGradient id="paint2_linear_2098_29" x1="46.4008" y1="23.3544" x2="119.263" y2="23.3544" gradientUnits="userSpaceOnUse">
<stop offset="0.16" stop-color="#B1A89D"/>
<stop offset="0.94" stop-color="#7D746C"/>
</linearGradient>
<linearGradient id="paint3_linear_2098_29" x1="107.846" y1="48.9067" x2="60.0357" y2="10.1191" gradientUnits="userSpaceOnUse">
<stop stop-color="#B1A89D"/>
<stop offset="0.54" stop-color="#E2DACD"/>
</linearGradient>
<linearGradient id="paint4_linear_2098_29" x1="111.357" y1="18.2219" x2="156.452" y2="75.0737" gradientUnits="userSpaceOnUse">
<stop offset="0.16" stop-color="#B1A89D"/>
<stop offset="0.94" stop-color="#7D746C"/>
</linearGradient>
<linearGradient id="paint5_linear_2098_29" x1="129.586" y1="81.8682" x2="129.884" y2="20.5509" gradientUnits="userSpaceOnUse">
<stop stop-color="#B1A89D"/>
<stop offset="0.54" stop-color="#E2DACD"/>
</linearGradient>
<linearGradient id="paint6_linear_2098_29" x1="156.087" y1="64.5879" x2="140.14" y2="135.23" gradientUnits="userSpaceOnUse">
<stop offset="0.16" stop-color="#B1A89D"/>
<stop offset="0.94" stop-color="#7D746C"/>
</linearGradient>
<linearGradient id="paint7_linear_2098_29" x1="117.397" y1="118.462" x2="165.577" y2="80.1293" gradientUnits="userSpaceOnUse">
<stop stop-color="#B1A89D"/>
<stop offset="0.54" stop-color="#E2DACD"/>
</linearGradient>
<linearGradient id="paint8_linear_2098_29" x1="147.319" y1="128.742" x2="81.8903" y2="160.574" gradientUnits="userSpaceOnUse">
<stop offset="0.16" stop-color="#B1A89D"/>
<stop offset="0.94" stop-color="#7D746C"/>
</linearGradient>
<linearGradient id="paint9_linear_2098_29" x1="80.8116" y1="132.293" x2="140.899" y2="146.345" gradientUnits="userSpaceOnUse">
<stop stop-color="#B1A89D"/>
<stop offset="0.54" stop-color="#E2DACD"/>
</linearGradient>
<linearGradient id="paint10_linear_2098_29" x1="85.8151" y1="158.822" x2="20.4068" y2="127.371" gradientUnits="userSpaceOnUse">
<stop offset="0.16" stop-color="#B1A89D"/>
<stop offset="0.94" stop-color="#7D746C"/>
</linearGradient>
<linearGradient id="paint11_linear_2098_29" x1="41.5888" y1="109.566" x2="67.8879" y2="164.874" gradientUnits="userSpaceOnUse">
<stop stop-color="#B1A89D"/>
<stop offset="0.54" stop-color="#E2DACD"/>
</linearGradient>
<linearGradient id="paint12_linear_2098_29" x1="30.9269" y1="139.053" x2="14.7483" y2="68.5264" gradientUnits="userSpaceOnUse">
<stop offset="0.16" stop-color="#B1A89D"/>
<stop offset="0.94" stop-color="#7D746C"/>
</linearGradient>
<linearGradient id="paint13_linear_2098_29" x1="41.9094" y1="73.9379" x2="15.2542" y2="129.253" gradientUnits="userSpaceOnUse">
<stop stop-color="#B1A89D"/>
<stop offset="0.54" stop-color="#E2DACD"/>
</linearGradient>
<radialGradient id="paint14_radial_2098_29" cx="0" cy="0" r="1" gradientUnits="userSpaceOnUse" gradientTransform="translate(86.4906 87.6177) scale(42.3384 42.0682)">
<stop stop-color="#837770"/>
<stop offset="0.77" stop-color="#D8CAC0"/>
</radialGradient>
<radialGradient id="paint15_radial_2098_29" cx="0" cy="0" r="1" gradientUnits="userSpaceOnUse" gradientTransform="translate(84.478 86.3461) scale(44.823 44.537)">
<stop stop-color="#B1A89D"/>
<stop offset="1" stop-color="#ADA49C"/>
</radialGradient>
<radialGradient id="paint16_radial_2098_29" cx="0" cy="0" r="1" gradientUnits="userSpaceOnUse" gradientTransform="translate(86.3788 86.9138) scale(43.3447 43.0681)">
<stop stop-color="#49423C"/>
<stop offset="1" stop-color="#A5998E"/>
</radialGradient>
<linearGradient id="paint17_linear_2098_29" x1="15.7087" y1="81.3454" x2="60.3512" y2="24.6588" gradientUnits="userSpaceOnUse">
<stop offset="0.16" stop-color="#B1A89D"/>
<stop offset="0.94" stop-color="#7D746C"/>
</linearGradient>
<clipPath id="clip0_2098_29">
<rect width="176" height="177" fill="white"/>
</clipPath>
</defs>
</svg>
